P3
7 8
255
0 0 0  0 0 0   0 0 0   0 0 0   0 0 0   0 0 0   0 0 0
0 0 0  0 0 230  0 0 230  0 0 230  0 0 230  0 0 230  0 0 0
0 0 0  0 0 230  0 0 0   0 0 230  0 0 0   0 0 230  0 0 0
0 0 0  0 0 0   0 0 0   0 230 0  0 0 0   0 0 0   0 0 0
0 0 0  0 0 0   0 0 0   0 230 0  0 0 0   0 0 0   0 0 0
0 0 0  0 0 0   0 0 0   230 0 0  0 0 0   0 0 0   0 0 0
0 0 0  0 0 0   230 0 0  230 0 0  230 0 0  0 0 0   0 0 0
0 0 0  0 0 0   0 0 0   0 0 0   0 0 0   0 0 0   0 0 0
